<?xml version="1.0" encoding="UTF-8"?>
<svg id="Calque_2" xmlns="http://www.w3.org/2000/svg" viewBox="0 0 236.07 44.04">
  <defs>
    <style>
      .cls-1 {
        fill: #10394f;
      }
    </style>
  </defs>
  <g id="Calque_1-2" data-name="Calque_1">
    <g>
      <g>
        <polygon class="cls-1" points=".67 22.56 .67 43.34 21.46 43.34 .67 22.56"/>
        <polygon class="cls-1" points="43.38 21.44 43.38 .66 22.6 .66 43.38 21.44"/>
        <path class="cls-1" d="M22.4,3.85l17.79,17.79c5.12,5.12,5.12,13.44,0,18.56s-13.44,5.12-18.56,0L3.84,22.41C-1.28,17.28-1.28,8.97,3.84,3.85c5.12-5.13,13.44-5.13,18.56,0Z"/>
      </g>
      <path class="cls-1" d="M61.77,42.18c-3.33-.76-6.07-1.78-8.21-3.06l4.6-10.03c2.02,1.13,4.28,2.04,6.79,2.71,2.5.68,4.91,1.02,7.2,1.02,1.98,0,3.39-.18,4.24-.56.85-.37,1.27-.92,1.27-1.66,0-.86-.55-1.5-1.66-1.93s-2.94-.89-5.48-1.4c-3.27-.66-5.99-1.37-8.18-2.12-2.18-.76-4.08-2-5.69-3.73-1.62-1.73-2.42-4.07-2.42-7.02,0-2.57.75-4.9,2.24-7,1.49-2.1,3.73-3.75,6.69-4.95,2.97-1.2,6.57-1.8,10.81-1.8,2.91,0,5.76.3,8.57.9,2.81.61,5.27,1.49,7.42,2.65l-4.3,9.97c-4.16-2.02-8.09-3.03-11.81-3.03s-5.51.86-5.51,2.57c0,.82.54,1.43,1.63,1.84,1.09.41,2.88.84,5.39,1.31,3.23.59,5.95,1.25,8.17,2.01,2.22.76,4.15,1.99,5.78,3.7s2.45,4.04,2.45,7c0,2.57-.75,4.89-2.24,6.97-1.49,2.08-3.73,3.73-6.69,4.95-2.97,1.22-6.57,1.84-10.81,1.84-3.51,0-6.93-.39-10.26-1.15Z"/>
      <path class="cls-1" d="M134.39,43.19l-.12-19.32-9.2,15.5h-6.3l-9.2-14.84v18.66h-13.02V.79h11.75l13.81,22.59L135.55.79h11.75l.12,42.39h-13.02s0,0,0,0Z"/>
      <polygon class="cls-1" points="186.52 32.4 186.52 43.19 152.04 43.19 152.04 .79 186.49 .79 186.49 11.57 166.09 11.57 166.09 16.54 184.01 16.54 184.01 26.83 166.09 26.83 166.09 32.4 186.52 32.4"/>
      <path class="cls-1" d="M191.26.79h20.89c4.72,0,8.89.86,12.51,2.57,3.61,1.72,6.42,4.17,8.42,7.36,2,3.19,3,6.95,3,11.26s-1,8.07-3,11.27c-2,3.19-4.81,5.64-8.42,7.36-3.61,1.72-7.78,2.57-12.51,2.57h-20.89V.79h0ZM211.55,32.04c3.07,0,5.52-.88,7.36-2.63,1.84-1.75,2.76-4.23,2.76-7.42s-.92-5.66-2.76-7.42c-1.84-1.75-4.29-2.63-7.36-2.63h-5.99v20.11h5.99Z"/>
    </g>
  </g>
</svg>